<mxfile host="app.diagrams.net" modified="2024-05-15T19:36:21.560Z" agent="Mozilla/5.0 (Windows NT 10.0; Win64; x64) AppleWebKit/537.36 (KHTML, like Gecko) Chrome/124.0.0.0 Safari/537.36" etag="ENYhbXkEE3_Ta3b3u8eX" version="24.4.2" type="device">
  <diagram name="PÃ¡gina-1" id="6Ukk5wenQDuAhtqJ9t3c">
    <mxGraphModel dx="880" dy="468" grid="1" gridSize="10" guides="1" tooltips="1" connect="1" arrows="1" fold="1" page="1" pageScale="1" pageWidth="827" pageHeight="1169" math="0" shadow="0">
      <root>
        <mxCell id="0" />
        <mxCell id="1" parent="0" />
        <mxCell id="xNEfcAzN-YDuYDELiBJG-1" value="Professor" style="swimlane;childLayout=stackLayout;horizontal=1;startSize=50;horizontalStack=0;rounded=1;fontSize=14;fontStyle=0;strokeWidth=2;resizeParent=0;resizeLast=1;shadow=0;dashed=0;align=center;arcSize=4;whiteSpace=wrap;html=1;" vertex="1" parent="1">
          <mxGeometry x="90" y="80" width="160" height="190" as="geometry">
            <mxRectangle x="50" y="70" width="100" height="50" as="alternateBounds" />
          </mxGeometry>
        </mxCell>
        <mxCell id="xNEfcAzN-YDuYDELiBJG-2" value="codigo&amp;nbsp; &amp;nbsp; &amp;nbsp; &amp;nbsp; &amp;nbsp;PK&amp;nbsp; &amp;nbsp; &amp;nbsp;&lt;div&gt;&lt;span style=&quot;background-color: initial;&quot;&gt;nome&lt;/span&gt;&lt;div&gt;endereco&lt;/div&gt;&lt;div&gt;cidade&lt;/div&gt;&lt;div&gt;estado&lt;/div&gt;&lt;div&gt;telefone&lt;/div&gt;&lt;div&gt;email&lt;/div&gt;&lt;div&gt;rg&lt;/div&gt;&lt;div&gt;cpf&lt;/div&gt;&lt;div&gt;&lt;br&gt;&lt;/div&gt;&lt;/div&gt;" style="align=left;strokeColor=none;fillColor=none;spacingLeft=4;fontSize=12;verticalAlign=top;resizable=0;rotatable=0;part=1;html=1;" vertex="1" parent="xNEfcAzN-YDuYDELiBJG-1">
          <mxGeometry y="50" width="160" height="140" as="geometry" />
        </mxCell>
        <mxCell id="xNEfcAzN-YDuYDELiBJG-7" value="Disciplina" style="swimlane;childLayout=stackLayout;horizontal=1;startSize=50;horizontalStack=0;rounded=1;fontSize=14;fontStyle=0;strokeWidth=2;resizeParent=0;resizeLast=1;shadow=0;dashed=0;align=center;arcSize=4;whiteSpace=wrap;html=1;" vertex="1" parent="1">
          <mxGeometry x="336" y="130" width="156" height="150" as="geometry">
            <mxRectangle x="336" y="130" width="100" height="50" as="alternateBounds" />
          </mxGeometry>
        </mxCell>
        <mxCell id="xNEfcAzN-YDuYDELiBJG-8" value="codigo&amp;nbsp; &amp;nbsp; PK&amp;nbsp; &amp;nbsp;&lt;div&gt;&lt;div&gt;nome&lt;/div&gt;&lt;div&gt;aulas&lt;/div&gt;&lt;div&gt;ementa&lt;/div&gt;&lt;div&gt;codigoprofessor&amp;nbsp; &amp;nbsp;FK&lt;/div&gt;&lt;div&gt;codigocurso&amp;nbsp; &amp;nbsp; &amp;nbsp; &amp;nbsp; &amp;nbsp;FK&lt;/div&gt;&lt;div&gt;&lt;br&gt;&lt;/div&gt;&lt;div&gt;&lt;br&gt;&lt;/div&gt;&lt;/div&gt;" style="align=left;strokeColor=none;fillColor=none;spacingLeft=4;fontSize=12;verticalAlign=top;resizable=0;rotatable=0;part=1;html=1;" vertex="1" parent="xNEfcAzN-YDuYDELiBJG-7">
          <mxGeometry y="50" width="156" height="100" as="geometry" />
        </mxCell>
        <mxCell id="xNEfcAzN-YDuYDELiBJG-11" value="Curso" style="swimlane;childLayout=stackLayout;horizontal=1;startSize=50;horizontalStack=0;rounded=1;fontSize=14;fontStyle=0;strokeWidth=2;resizeParent=0;resizeLast=1;shadow=0;dashed=0;align=center;arcSize=4;whiteSpace=wrap;html=1;" vertex="1" parent="1">
          <mxGeometry x="580" y="100" width="160" height="140" as="geometry">
            <mxRectangle x="600" y="120" width="80" height="50" as="alternateBounds" />
          </mxGeometry>
        </mxCell>
        <mxCell id="xNEfcAzN-YDuYDELiBJG-12" value="&lt;div&gt;&lt;div&gt;codigo&amp;nbsp; &amp;nbsp; &amp;nbsp; PK&lt;/div&gt;&lt;/div&gt;&lt;div&gt;nome&lt;/div&gt;&lt;div&gt;coordenador&lt;/div&gt;&lt;div&gt;sala&lt;/div&gt;&lt;div&gt;telefone&lt;/div&gt;" style="align=left;strokeColor=none;fillColor=none;spacingLeft=4;fontSize=12;verticalAlign=top;resizable=0;rotatable=0;part=1;html=1;" vertex="1" parent="xNEfcAzN-YDuYDELiBJG-11">
          <mxGeometry y="50" width="160" height="90" as="geometry" />
        </mxCell>
        <mxCell id="xNEfcAzN-YDuYDELiBJG-13" value="" style="edgeStyle=entityRelationEdgeStyle;fontSize=12;html=1;endArrow=ERmany;startArrow=ERmany;rounded=0;" edge="1" parent="1" source="xNEfcAzN-YDuYDELiBJG-2" target="xNEfcAzN-YDuYDELiBJG-8">
          <mxGeometry width="100" height="100" relative="1" as="geometry">
            <mxPoint x="230" y="250" as="sourcePoint" />
            <mxPoint x="330" y="150" as="targetPoint" />
          </mxGeometry>
        </mxCell>
        <mxCell id="xNEfcAzN-YDuYDELiBJG-14" value="" style="edgeStyle=entityRelationEdgeStyle;fontSize=12;html=1;endArrow=ERmany;startArrow=ERmany;rounded=0;" edge="1" parent="1" source="xNEfcAzN-YDuYDELiBJG-8" target="xNEfcAzN-YDuYDELiBJG-12">
          <mxGeometry width="100" height="100" relative="1" as="geometry">
            <mxPoint x="530" y="225" as="sourcePoint" />
            <mxPoint x="630" y="125" as="targetPoint" />
          </mxGeometry>
        </mxCell>
      </root>
    </mxGraphModel>
  </diagram>
</mxfile>
